<?xml version="1.0" encoding="UTF-8"?>
<svg xmlns="http://www.w3.org/2000/svg" xmlns:xlink="http://www.w3.org/1999/xlink"
     width="875" height="125" viewBox="0 0 875 125">
<defs>
</defs>
<rect x="0" y="0" width="25" height="25" fill="#777" />
<rect x="25" y="0" width="25" height="25" fill="#fff" />
<rect x="50" y="0" width="25" height="25" fill="#fff" />
<rect x="75" y="0" width="25" height="25" fill="#777" />
<rect x="100" y="0" width="25" height="25" fill="#777" />
<rect x="125" y="0" width="25" height="25" fill="#777" />
<rect x="150" y="0" width="25" height="25" fill="#777" />
<rect x="175" y="0" width="25" height="25" fill="#777" />
<rect x="200" y="0" width="25" height="25" fill="#777" />
<rect x="225" y="0" width="25" height="25" fill="#777" />
<rect x="250" y="0" width="25" height="25" fill="#fff" />
<rect x="275" y="0" width="25" height="25" fill="#777" />
<rect x="300" y="0" width="25" height="25" fill="#fff" />
<rect x="325" y="0" width="25" height="25" fill="#777" />
<rect x="350" y="0" width="25" height="25" fill="#777" />
<rect x="375" y="0" width="25" height="25" fill="#777" />
<rect x="400" y="0" width="25" height="25" fill="#fff" />
<rect x="425" y="0" width="25" height="25" fill="#777" />
<rect x="450" y="0" width="25" height="25" fill="#777" />
<rect x="475" y="0" width="25" height="25" fill="#777" />
<rect x="500" y="0" width="25" height="25" fill="#777" />
<rect x="525" y="0" width="25" height="25" fill="#fff" />
<rect x="550" y="0" width="25" height="25" fill="#fff" />
<rect x="575" y="0" width="25" height="25" fill="#777" />
<rect x="600" y="0" width="25" height="25" fill="#777" />
<rect x="625" y="0" width="25" height="25" fill="#fff" />
<rect x="650" y="0" width="25" height="25" fill="#777" />
<rect x="675" y="0" width="25" height="25" fill="#fff" />
<rect x="700" y="0" width="25" height="25" fill="#fff" />
<rect x="725" y="0" width="25" height="25" fill="#777" />
<rect x="750" y="0" width="25" height="25" fill="#fff" />
<rect x="775" y="0" width="25" height="25" fill="#777" />
<rect x="800" y="0" width="25" height="25" fill="#777" />
<rect x="825" y="0" width="25" height="25" fill="#777" />
<rect x="850" y="0" width="25" height="25" fill="#fff" />
<rect x="0" y="25" width="25" height="25" fill="#fff" />
<rect x="25" y="25" width="25" height="25" fill="#fff" />
<rect x="50" y="25" width="25" height="25" fill="#fff" />
<rect x="75" y="25" width="25" height="25" fill="#777" />
<rect x="100" y="25" width="25" height="25" fill="#777" />
<rect x="125" y="25" width="25" height="25" fill="#777" />
<rect x="150" y="25" width="25" height="25" fill="#777" />
<rect x="175" y="25" width="25" height="25" fill="#fff" />
<rect x="200" y="25" width="25" height="25" fill="#777" />
<rect x="225" y="25" width="25" height="25" fill="#fff" />
<rect x="250" y="25" width="25" height="25" fill="#fff" />
<rect x="275" y="25" width="25" height="25" fill="#777" />
<rect x="300" y="25" width="25" height="25" fill="#777" />
<rect x="325" y="25" width="25" height="25" fill="#fff" />
<rect x="350" y="25" width="25" height="25" fill="#fff" />
<rect x="375" y="25" width="25" height="25" fill="#777" />
<rect x="400" y="25" width="25" height="25" fill="#fff" />
<rect x="425" y="25" width="25" height="25" fill="#777" />
<rect x="450" y="25" width="25" height="25" fill="#fff" />
<rect x="475" y="25" width="25" height="25" fill="#777" />
<rect x="500" y="25" width="25" height="25" fill="#777" />
<rect x="525" y="25" width="25" height="25" fill="#fff" />
<rect x="550" y="25" width="25" height="25" fill="#777" />
<rect x="575" y="25" width="25" height="25" fill="#777" />
<rect x="600" y="25" width="25" height="25" fill="#fff" />
<rect x="625" y="25" width="25" height="25" fill="#fff" />
<rect x="650" y="25" width="25" height="25" fill="#fff" />
<rect x="675" y="25" width="25" height="25" fill="#777" />
<rect x="700" y="25" width="25" height="25" fill="#fff" />
<rect x="725" y="25" width="25" height="25" fill="#fff" />
<rect x="750" y="25" width="25" height="25" fill="#777" />
<rect x="775" y="25" width="25" height="25" fill="#777" />
<rect x="800" y="25" width="25" height="25" fill="#fff" />
<rect x="825" y="25" width="25" height="25" fill="#777" />
<rect x="850" y="25" width="25" height="25" fill="#777" />
<rect x="0" y="50" width="25" height="25" fill="#777" />
<rect x="25" y="50" width="25" height="25" fill="#fff" />
<rect x="50" y="50" width="25" height="25" fill="#777" />
<rect x="75" y="50" width="25" height="25" fill="#fff" />
<rect x="100" y="50" width="25" height="25" fill="#fff" />
<rect x="125" y="50" width="25" height="25" fill="#fff" />
<rect x="150" y="50" width="25" height="25" fill="#777" />
<rect x="175" y="50" width="25" height="25" fill="#777" />
<rect x="200" y="50" width="25" height="25" fill="#fff" />
<rect x="225" y="50" width="25" height="25" fill="#fff" />
<rect x="250" y="50" width="25" height="25" fill="#fff" />
<rect x="275" y="50" width="25" height="25" fill="#777" />
<rect x="300" y="50" width="25" height="25" fill="#fff" />
<rect x="325" y="50" width="25" height="25" fill="#777" />
<rect x="350" y="50" width="25" height="25" fill="#fff" />
<rect x="375" y="50" width="25" height="25" fill="#777" />
<rect x="400" y="50" width="25" height="25" fill="#fff" />
<rect x="425" y="50" width="25" height="25" fill="#777" />
<rect x="450" y="50" width="25" height="25" fill="#fff" />
<rect x="475" y="50" width="25" height="25" fill="#777" />
<rect x="500" y="50" width="25" height="25" fill="#fff" />
<rect x="525" y="50" width="25" height="25" fill="#777" />
<rect x="550" y="50" width="25" height="25" fill="#777" />
<rect x="575" y="50" width="25" height="25" fill="#fff" />
<rect x="600" y="50" width="25" height="25" fill="#777" />
<rect x="625" y="50" width="25" height="25" fill="#fff" />
<rect x="650" y="50" width="25" height="25" fill="#777" />
<rect x="675" y="50" width="25" height="25" fill="#777" />
<rect x="700" y="50" width="25" height="25" fill="#fff" />
<rect x="725" y="50" width="25" height="25" fill="#777" />
<rect x="750" y="50" width="25" height="25" fill="#777" />
<rect x="775" y="50" width="25" height="25" fill="#fff" />
<rect x="800" y="50" width="25" height="25" fill="#777" />
<rect x="825" y="50" width="25" height="25" fill="#fff" />
<rect x="850" y="50" width="25" height="25" fill="#fff" />
<rect x="0" y="75" width="25" height="25" fill="#fff" />
<rect x="25" y="75" width="25" height="25" fill="#777" />
<rect x="50" y="75" width="25" height="25" fill="#fff" />
<rect x="75" y="75" width="25" height="25" fill="#fff" />
<rect x="100" y="75" width="25" height="25" fill="#777" />
<rect x="125" y="75" width="25" height="25" fill="#777" />
<rect x="150" y="75" width="25" height="25" fill="#777" />
<rect x="175" y="75" width="25" height="25" fill="#777" />
<rect x="200" y="75" width="25" height="25" fill="#777" />
<rect x="225" y="75" width="25" height="25" fill="#777" />
<rect x="250" y="75" width="25" height="25" fill="#fff" />
<rect x="275" y="75" width="25" height="25" fill="#777" />
<rect x="300" y="75" width="25" height="25" fill="#fff" />
<rect x="325" y="75" width="25" height="25" fill="#777" />
<rect x="350" y="75" width="25" height="25" fill="#fff" />
<rect x="375" y="75" width="25" height="25" fill="#777" />
<rect x="400" y="75" width="25" height="25" fill="#fff" />
<rect x="425" y="75" width="25" height="25" fill="#777" />
<rect x="450" y="75" width="25" height="25" fill="#fff" />
<rect x="475" y="75" width="25" height="25" fill="#fff" />
<rect x="500" y="75" width="25" height="25" fill="#fff" />
<rect x="525" y="75" width="25" height="25" fill="#fff" />
<rect x="550" y="75" width="25" height="25" fill="#fff" />
<rect x="575" y="75" width="25" height="25" fill="#777" />
<rect x="600" y="75" width="25" height="25" fill="#777" />
<rect x="625" y="75" width="25" height="25" fill="#777" />
<rect x="650" y="75" width="25" height="25" fill="#777" />
<rect x="675" y="75" width="25" height="25" fill="#777" />
<rect x="700" y="75" width="25" height="25" fill="#fff" />
<rect x="725" y="75" width="25" height="25" fill="#777" />
<rect x="750" y="75" width="25" height="25" fill="#777" />
<rect x="775" y="75" width="25" height="25" fill="#fff" />
<rect x="800" y="75" width="25" height="25" fill="#777" />
<rect x="825" y="75" width="25" height="25" fill="#777" />
<rect x="850" y="75" width="25" height="25" fill="#777" />
<rect x="0" y="100" width="25" height="25" fill="#fff" />
<rect x="25" y="100" width="25" height="25" fill="#777" />
<rect x="50" y="100" width="25" height="25" fill="#777" />
<rect x="75" y="100" width="25" height="25" fill="#777" />
<rect x="100" y="100" width="25" height="25" fill="#fff" />
<rect x="125" y="100" width="25" height="25" fill="#fff" />
<rect x="150" y="100" width="25" height="25" fill="#777" />
<rect x="175" y="100" width="25" height="25" fill="#fff" />
<rect x="200" y="100" width="25" height="25" fill="#fff" />
<rect x="225" y="100" width="25" height="25" fill="#777" />
<rect x="250" y="100" width="25" height="25" fill="#fff" />
<rect x="275" y="100" width="25" height="25" fill="#fff" />
<rect x="300" y="100" width="25" height="25" fill="#777" />
<rect x="325" y="100" width="25" height="25" fill="#777" />
<rect x="350" y="100" width="25" height="25" fill="#777" />
<rect x="375" y="100" width="25" height="25" fill="#777" />
<rect x="400" y="100" width="25" height="25" fill="#fff" />
<rect x="425" y="100" width="25" height="25" fill="#777" />
<rect x="450" y="100" width="25" height="25" fill="#777" />
<rect x="475" y="100" width="25" height="25" fill="#fff" />
<rect x="500" y="100" width="25" height="25" fill="#fff" />
<rect x="525" y="100" width="25" height="25" fill="#fff" />
<rect x="550" y="100" width="25" height="25" fill="#fff" />
<rect x="575" y="100" width="25" height="25" fill="#777" />
<rect x="600" y="100" width="25" height="25" fill="#777" />
<rect x="625" y="100" width="25" height="25" fill="#fff" />
<rect x="650" y="100" width="25" height="25" fill="#777" />
<rect x="675" y="100" width="25" height="25" fill="#fff" />
<rect x="700" y="100" width="25" height="25" fill="#fff" />
<rect x="725" y="100" width="25" height="25" fill="#fff" />
<rect x="750" y="100" width="25" height="25" fill="#777" />
<rect x="775" y="100" width="25" height="25" fill="#fff" />
<rect x="800" y="100" width="25" height="25" fill="#777" />
<rect x="825" y="100" width="25" height="25" fill="#777" />
<rect x="850" y="100" width="25" height="25" fill="#fff" />
<path d="M0,0 L875,0" stroke-width="1" stroke="#7e56c2" />
<path d="M0,25 L875,25" stroke-width="1" stroke="#7e56c2" />
<path d="M0,50 L875,50" stroke-width="1" stroke="#7e56c2" />
<path d="M0,75 L875,75" stroke-width="1" stroke="#7e56c2" />
<path d="M0,100 L875,100" stroke-width="1" stroke="#7e56c2" />
<path d="M0,125 L875,125" stroke-width="1" stroke="#7e56c2" />
<path d="M0,0 L0,125" stroke-width="1" stroke="#7e56c2" />
<path d="M25,0 L25,125" stroke-width="1" stroke="#7e56c2" />
<path d="M50,0 L50,125" stroke-width="1" stroke="#7e56c2" />
<path d="M75,0 L75,125" stroke-width="1" stroke="#7e56c2" />
<path d="M100,0 L100,125" stroke-width="1" stroke="#7e56c2" />
<path d="M125,0 L125,125" stroke-width="1" stroke="#7e56c2" />
<path d="M150,0 L150,125" stroke-width="1" stroke="#7e56c2" />
<path d="M175,0 L175,125" stroke-width="1" stroke="#7e56c2" />
<path d="M200,0 L200,125" stroke-width="1" stroke="#7e56c2" />
<path d="M225,0 L225,125" stroke-width="1" stroke="#7e56c2" />
<path d="M250,0 L250,125" stroke-width="1" stroke="#7e56c2" />
<path d="M275,0 L275,125" stroke-width="1" stroke="#7e56c2" />
<path d="M300,0 L300,125" stroke-width="1" stroke="#7e56c2" />
<path d="M325,0 L325,125" stroke-width="1" stroke="#7e56c2" />
<path d="M350,0 L350,125" stroke-width="1" stroke="#7e56c2" />
<path d="M375,0 L375,125" stroke-width="1" stroke="#7e56c2" />
<path d="M400,0 L400,125" stroke-width="1" stroke="#7e56c2" />
<path d="M425,0 L425,125" stroke-width="1" stroke="#7e56c2" />
<path d="M450,0 L450,125" stroke-width="1" stroke="#7e56c2" />
<path d="M475,0 L475,125" stroke-width="1" stroke="#7e56c2" />
<path d="M500,0 L500,125" stroke-width="1" stroke="#7e56c2" />
<path d="M525,0 L525,125" stroke-width="1" stroke="#7e56c2" />
<path d="M550,0 L550,125" stroke-width="1" stroke="#7e56c2" />
<path d="M575,0 L575,125" stroke-width="1" stroke="#7e56c2" />
<path d="M600,0 L600,125" stroke-width="1" stroke="#7e56c2" />
<path d="M625,0 L625,125" stroke-width="1" stroke="#7e56c2" />
<path d="M650,0 L650,125" stroke-width="1" stroke="#7e56c2" />
<path d="M675,0 L675,125" stroke-width="1" stroke="#7e56c2" />
<path d="M700,0 L700,125" stroke-width="1" stroke="#7e56c2" />
<path d="M725,0 L725,125" stroke-width="1" stroke="#7e56c2" />
<path d="M750,0 L750,125" stroke-width="1" stroke="#7e56c2" />
<path d="M775,0 L775,125" stroke-width="1" stroke="#7e56c2" />
<path d="M800,0 L800,125" stroke-width="1" stroke="#7e56c2" />
<path d="M825,0 L825,125" stroke-width="1" stroke="#7e56c2" />
<path d="M850,0 L850,125" stroke-width="1" stroke="#7e56c2" />
<path d="M875,0 L875,125" stroke-width="1" stroke="#7e56c2" />
</svg>