<svg xmlns="http://www.w3.org/2000/svg" width="184" height="184" shape-rendering="crispEdges"><path fill="#fff" d="M0 0h184v184H0z"/><path stroke="#000" d="M130 20h4m-4 1h4m-2 1h4m-4 1h4m-50 1h4m4 0h4m24 0h6m2 0h4m2 0h2m-52 1h4m4 0h4m24 0h6m2 0h4m2 0h2m-54 1h2m4 0h4m4 0h6m16 0h8m2 0h2m4 0h2m-54 1h2m4 0h4m4 0h6m16 0h8m2 0h2m4 0h2m-56 1h2m8 0h4m6 0h2m12 0h4m2 0h4m4 0h2m2 0h2m-54 1h2m8 0h4m6 0h2m12 0h4m2 0h4m4 0h2m2 0h2m-60 1h4m2 0h2m10 0h2m10 0h14m2 0h6m2 0h4m-58 1h4m2 0h2m10 0h2m10 0h14m2 0h6m2 0h4m-60 1h2m4 0h2m4 0h2m6 0h4m2 0h2m6 0h2m4 0h10m2 0h2m4 0h2m-60 1h2m4 0h2m4 0h2m6 0h4m2 0h2m6 0h2m4 0h10m2 0h2m4 0h2m-62 1h6m6 0h2m6 0h8m4 0h4m2 0h6m2 0h2m12 0h4m-64 1h6m6 0h2m6 0h8m4 0h4m2 0h6m2 0h2m12 0h4m-70 1h4m2 0h2m2 0h2m4 0h4m4 0h2m6 0h2m2 0h4m4 0h8m2 0h12m-66 1h4m2 0h2m2 0h2m4 0h4m4 0h2m6 0h2m2 0h4m4 0h8m2 0h12m-68 1h2m4 0h2m6 0h2m8 0h2m10 0h4m4 0h4m6 0h2m2 0h2m2 0h10m2 0h2m-76 1h2m4 0h2m6 0h2m8 0h2m10 0h4m4 0h4m6 0h2m2 0h2m2 0h10m2 0h2m-78 1h6m2 0h4m4 0h2m4 0h2m8 0h2m6 0h10m2 0h2m2 0h4m2 0h2m8 0h6m-78 1h6m2 0h4m4 0h2m4 0h2m8 0h2m6 0h10m2 0h2m2 0h4m2 0h2m8 0h6m-78 1h4m10 0h4m2 0h6m6 0h4m2 0h6m6 0h4m2 0h8m4 0h2m4 0h2m-76 1h4m10 0h4m2 0h6m6 0h4m2 0h6m6 0h4m2 0h8m4 0h2m4 0h2m-72 1h6m4 0h6m2 0h2m6 0h2m2 0h2m2 0h6m10 0h2m4 0h2m8 0h4m-70 1h6m4 0h6m2 0h2m6 0h2m2 0h2m2 0h6m10 0h2m4 0h2m8 0h4m-66 1h2m2 0h2m6 0h18m2 0h10m6 0h8m-56 1h2m2 0h2m6 0h18m2 0h10m6 0h8m-68 1h6m2 0h6m4 0h4m2 0h2m4 0h2m12 0h2m6 0h4m4 0h2m-62 1h6m2 0h6m4 0h4m2 0h2m4 0h2m12 0h2m6 0h4m4 0h2m-60 1h10m2 0h10m4 0h4m6 0h10m8 0h2m2 0h2m2 0h2m-64 1h10m2 0h10m4 0h4m6 0h10m8 0h2m2 0h2m2 0h2m-70 1h4m2 0h2m2 0h14m2 0h6m2 0h12m2 0h10m2 0h2m2 0h6m-70 1h4m2 0h2m2 0h14m2 0h6m2 0h12m2 0h10m2 0h2m2 0h6m-72 1h2m8 0h4m4 0h4m6 0h6m4 0h2m4 0h2m4 0h2m4 0h2m6 0h2m2 0h2m-70 1h2m8 0h4m4 0h4m6 0h6m4 0h2m4 0h2m4 0h2m4 0h2m6 0h2m2 0h2m-72 1h6m12 0h6m4 0h2m2 0h4m2 0h4m8 0h2m4 0h2m2 0h4m2 0h2m-68 1h6m12 0h6m4 0h2m2 0h4m2 0h4m8 0h2m4 0h2m2 0h4m2 0h2m-68 1h2m2 0h2m4 0h2m8 0h2m8 0h2m2 0h10m4 0h2m8 0h2m2 0h4m-66 1h2m2 0h2m4 0h2m8 0h2m8 0h2m2 0h10m4 0h2m8 0h2m2 0h4m-56 1h4m2 0h6m4 0h2m2 0h2m4 0h4m2 0h4m8 0h2m4 0h2m2 0h2m-56 1h4m2 0h6m4 0h2m2 0h2m4 0h4m2 0h4m8 0h2m4 0h2m2 0h2m-64 1h2m2 0h2m10 0h2m2 0h2m10 0h2m2 0h2m2 0h4m2 0h2m2 0h2m4 0h6m2 0h4m2 0h2m-72 1h2m2 0h2m10 0h2m2 0h2m10 0h2m2 0h2m2 0h4m2 0h2m2 0h2m4 0h6m2 0h4m2 0h2m-74 1h2m6 0h6m4 0h2m4 0h2m4 0h2m2 0h2m4 0h8m2 0h4m6 0h4m2 0h8m-74 1h2m6 0h6m4 0h2m4 0h2m4 0h2m2 0h2m4 0h8m2 0h4m6 0h4m2 0h8m-74 1h2m6 0h4m2 0h6m2 0h4m2 0h2m4 0h2m6 0h2m10 0h8m2 0h2m2 0h4m-72 1h2m6 0h4m2 0h6m2 0h4m2 0h2m4 0h2m6 0h2m10 0h8m2 0h2m2 0h4m-72 1h2m4 0h4m6 0h6m12 0h2m4 0h8m2 0h6m2 0h4m6 0h4m-72 1h2m4 0h4m6 0h6m12 0h2m4 0h8m2 0h6m2 0h4m6 0h4m-72 1h2m12 0h6m10 0h6m4 0h6m6 0h4m4 0h2m8 0h2m-72 1h2m12 0h6m10 0h6m4 0h6m6 0h4m4 0h2m8 0h2m-72 1h2m10 0h2m2 0h2m2 0h2m2 0h8m8 0h8m4 0h4m2 0h4m-62 1h2m10 0h2m2 0h2m2 0h2m2 0h8m8 0h8m4 0h4m2 0h4m-62 1h2m10 0h4m2 0h6m2 0h4m6 0h2m2 0h4m2 0h8m2 0h6m6 0h2m2 0h2m-74 1h2m10 0h4m2 0h6m2 0h4m6 0h2m2 0h4m2 0h8m2 0h6m6 0h2m2 0h2m-74 1h2m12 0h2m2 0h2m8 0h10m2 0h2m2 0h2m2 0h6m14 0h6m-74 1h2m12 0h2m2 0h2m8 0h10m2 0h2m2 0h2m2 0h6m14 0h6m-74 1h2m8 0h8m2 0h2m8 0h6m2 0h4m2 0h6m6 0h2m2 0h2m8 0h2m-72 1h2m8 0h8m2 0h2m8 0h6m2 0h4m2 0h6m6 0h2m2 0h2m8 0h2m-72 1h2m10 0h2m4 0h4m2 0h4m2 0h4m2 0h8m4 0h4m2 0h4m4 0h8m-70 1h2m10 0h2m4 0h4m2 0h4m2 0h4m2 0h8m4 0h4m2 0h4m4 0h8m-70 1h2m10 0h2m2 0h4m2 0h4m4 0h2m8 0h14m-54 1h2m10 0h2m2 0h4m2 0h4m4 0h2m8 0h14m-54 1h6m6 0h4m4 0h4m4 0h2m2 0h6m2 0h2m2 0h4m2 0h2m6 0h2m-60 1h6m6 0h4m4 0h4m4 0h2m2 0h6m2 0h2m2 0h4m2 0h2m6 0h2m-60 1h6m8 0h4m2 0h12m2 0h2m4 0h2m6 0h8m8 0h2m-66 1h6m8 0h4m2 0h12m2 0h2m4 0h2m6 0h8m8 0h2m-64 1h2m2 0h4m2 0h2m2 0h4m4 0h4m8 0h8m2 0h2m2 0h4m2 0h8m2 0h2m-66 1h2m2 0h4m2 0h2m2 0h4m4 0h4m8 0h8m2 0h2m2 0h4m2 0h8m2 0h2m-66 1h2m6 0h14m2 0h12m4 0h2m2 0h4m2 0h2m2 0h2m8 0h2m-66 1h2m6 0h14m2 0h12m4 0h2m2 0h4m2 0h2m2 0h2m8 0h2m-68 1h2m6 0h2m6 0h4m2 0h2m4 0h2m6 0h4m2 0h12m4 0h2m4 0h2m-66 1h2m6 0h2m6 0h4m2 0h2m4 0h2m6 0h4m2 0h12m4 0h2m4 0h2m-66 1h2m2 0h4m8 0h6m4 0h2m6 0h2m2 0h14m2 0h2m4 0h4m-64 1h2m2 0h4m8 0h6m4 0h2m6 0h2m2 0h14m2 0h2m4 0h4m-62 1h4m2 0h2m2 0h4m6 0h2m2 0h2m2 0h2m2 0h4m2 0h2m4 0h4m4 0h6m-58 1h4m2 0h2m2 0h4m6 0h2m2 0h2m2 0h2m2 0h4m2 0h2m4 0h4m4 0h6m-56 1h12m2 0h4m20 0h10m6 0h2m-56 1h12m2 0h4m20 0h10m6 0h2m-48 1h2m6 0h2m4 0h10m2 0h2m12 0h2m2 0h2m-46 1h2m6 0h2m4 0h10m2 0h2m12 0h2m2 0h2m-44 1h4m10 0h2m2 0h2m2 0h4m6 0h2m8 0h2m-44 1h4m10 0h2m2 0h2m2 0h4m6 0h2m8 0h2m-50 1h4m2 0h2m4 0h4m2 0h2m10 0h4m2 0h2m8 0h6m-52 1h4m2 0h2m4 0h4m2 0h2m10 0h4m2 0h2m8 0h6m-52 1h2m2 0h4m2 0h2m12 0h2m2 0h2m6 0h2m8 0h6m-52 1h2m2 0h4m2 0h2m12 0h2m2 0h2m6 0h2m8 0h6m-50 1h2m6 0h8m2 0h4m6 0h2m6 0h2m8 0h2m-48 1h2m6 0h8m2 0h4m6 0h2m6 0h2m8 0h2m-48 1h6m4 0h2m6 0h2m6 0h6m6 0h8m-46 1h6m4 0h2m6 0h2m6 0h6m6 0h8m-46 1h2m6 0h4m4 0h4m2 0h4m6 0h2m-34 1h2m6 0h4m4 0h4m2 0h4m6 0h2m-28 1h4m4 0h4m4 0h2m6 0h6m-30 1h4m4 0h4m4 0h2m6 0h6m-28 1h4m4 0h2m2 0h4m2 0h4m6 0h2m-30 1h4m4 0h2m2 0h4m2 0h4m6 0h2m-20 1h4m4 0h2m6 0h6m-22 1h4m4 0h2m6 0h6m-20 1h2m2 0h4m2 0h4m6 0h2m-22 1h2m2 0h4m2 0h4m6 0h2m-20 1h4m4 0h2m6 0h6m-22 1h4m4 0h2m6 0h6m-20 1h2m2 0h4m2 0h4m6 0h2m-22 1h2m2 0h4m2 0h4m6 0h2m-20 1h4m4 0h2m6 0h6m-22 1h4m4 0h2m6 0h6m-20 1h2m2 0h4m2 0h4m6 0h2m-22 1h2m2 0h4m2 0h4m6 0h2m-20 1h4m4 0h2m6 0h6m-22 1h4m4 0h2m6 0h6m-20 1h2m2 0h4m2 0h4m6 0h2m-22 1h2m2 0h4m2 0h4m6 0h2m-20 1h4m4 0h2m6 0h6m-22 1h4m4 0h2m6 0h6m-20 1h2m2 0h4m2 0h4m6 0h2m-22 1h2m2 0h4m2 0h4m6 0h2m-20 1h4m4 0h2m6 0h6m-22 1h4m4 0h2m6 0h6m-20 1h2m2 0h4m2 0h4m6 0h2m-22 1h2m2 0h4m2 0h4m6 0h2m-20 1h4m4 0h2m2 0h10m-22 1h4m4 0h2m2 0h10m-20 1h2m2 0h6m4 0h4m-18 1h2m2 0h6m4 0h4m-16 1h4m2 0h2m12 0h2m-22 1h4m2 0h2m12 0h2m-20 1h2m2 0h4m6 0h6m-20 1h2m2 0h4m6 0h6m-18 1h10m4 0h2m-16 1h10m4 0h2m-14 1h4m4 0h4m-12 1h4m4 0h4"/><path stroke="red" d="M122 146h2m-2 1h2"/></svg>